<svg width="15" height="15" viewBox="0 0 15 15" fill="none" xmlns="http://www.w3.org/2000/svg">
<g clip-path="url(#clip0_5_207)">
<path d="M7.48745 11.2312C8.48034 11.2312 9.43258 10.8368 10.1347 10.1347C10.8368 9.43261 11.2312 8.48038 11.2312 7.48748C11.2312 6.49458 10.8368 5.54234 10.1347 4.84026C9.43258 4.13817 8.48034 3.74374 7.48745 3.74374C6.49455 3.74374 5.54231 4.13817 4.84023 4.84026C4.13814 5.54234 3.74371 6.49458 3.74371 7.48748C3.74371 8.48038 4.13814 9.43261 4.84023 10.1347C5.54231 10.8368 6.49455 11.2312 7.48745 11.2312ZM7.48745 0.935944C5.74987 0.935944 4.08346 1.62619 2.85481 2.85484C1.62616 4.08349 0.935913 5.7499 0.935913 7.48748C0.935913 9.22505 1.62616 10.8915 2.85481 12.1201C4.08346 13.3488 5.74987 14.039 7.48745 14.039C9.22502 14.039 10.8914 13.3488 12.1201 12.1201C13.3487 10.8915 14.039 9.22505 14.039 7.48748C14.039 5.7499 13.3487 4.08349 12.1201 2.85484C10.8914 1.62619 9.22502 0.935944 7.48745 0.935944ZM1.87185 7.48748C1.87185 6.75002 2.0171 6.01979 2.29931 5.33848C2.58152 4.65716 2.99516 4.0381 3.51662 3.51665C4.03807 2.99519 4.65713 2.58155 5.33845 2.29934C6.01976 2.01713 6.74999 1.87188 7.48745 1.87188C8.2249 1.87188 8.95513 2.01713 9.63644 2.29934C10.3178 2.58155 10.9368 2.99519 11.4583 3.51665C11.9797 4.0381 12.3934 4.65716 12.6756 5.33848C12.9578 6.01979 13.103 6.75002 13.103 7.48748C13.103 8.97683 12.5114 10.4052 11.4583 11.4583C10.4051 12.5114 8.9768 13.1031 7.48745 13.1031C5.9981 13.1031 4.56975 12.5114 3.51662 11.4583C2.46349 10.4052 1.87185 8.97683 1.87185 7.48748Z" fill="#F4F4F4"/>
</g>
<defs>
<clipPath id="clip0_5_207">
<rect width="14.9749" height="14.9749" fill="white"/>
</clipPath>
</defs>
</svg>
