<svg width="305" height="308" viewBox="0 0 305 308" fill="none" xmlns="http://www.w3.org/2000/svg">
<path d="M291.915 207.258C261.049 279.405 179.572 310.393 115.733 305.109C98.3026 303.667 63.2322 300.764 35.8488 274.869C-16.7391 225.138 -8.64009 121.187 41.7016 59.986C48.1845 52.1046 93.0587 -0.699764 162.987 0.0070303C214.184 0.524563 250.119 29.4453 254.489 33.0483C260.009 37.5998 272.183 48.4157 283.156 65.5744C308.937 105.891 311.203 162.174 291.915 207.258Z" fill="url(#paint0_linear_5_142)"/>
<path d="M240.116 144.68C240.116 144.68 242.342 116.751 255.947 110.624C269.552 104.498 294.434 102.365 299.496 62.4546C302.459 39.0894 304.1 28.9094 304.951 24.4847C305.283 22.7586 303.881 21.1923 302.129 21.3378C289.739 22.3675 249.282 27.6985 238.211 53.7878C225.086 84.7169 240.116 144.68 240.116 144.68Z" fill="#91B3FA"/>
<path d="M291.577 31.4943C277.003 42.0093 259.394 61.4672 248.989 81.6719C247.574 85.0327 243.722 92.0927 241.022 105.066C238.691 115.878 238.088 127.495 238.747 135.295C238.789 135.789 239.222 136.154 239.716 136.113C240.563 136.041 240.546 135.135 240.535 135.163C240.232 121.922 242.606 105.726 247.927 91.4426C254.65 73.9236 267.288 57.5727 280.022 43.9138L281.326 42.5739C291.157 32.331 292.992 32.4383 292.262 31.5775C292.089 31.3743 291.79 31.3415 291.577 31.4943Z" fill="#BDD0FB"/>
<path d="M213.942 196.108C212.117 196.779 232.659 175.811 242.071 140.511C246.507 123.876 248.739 102.69 259.219 95.5228C267.942 89.5577 294.782 96.6768 303.541 99.2328C304.635 99.5521 304.865 101 303.921 101.64C299.267 104.791 289.229 112.323 285.957 120.623C281.643 131.563 270.19 137.618 260.4 138.564C250.61 139.509 245.081 140.838 238.82 155.688C232.559 170.539 219.126 194.2 213.942 196.108Z" fill="#BDD0FB"/>
<path d="M290.491 102.691C279.051 101.988 266.286 105.916 259.071 115.019L258.389 115.888C256.811 117.929 247.538 132.637 241.949 145.046C241.879 145.201 241.948 145.383 242.103 145.452C242.365 145.57 242.533 145.285 242.504 145.309C246.223 138.357 251.437 129.594 255.544 123.063C259.961 115.93 263.034 111.107 271.839 107.096C281.621 102.806 290.502 103.181 290.475 103.184C290.611 103.184 290.722 103.074 290.722 102.938C290.723 102.807 290.62 102.699 290.491 102.691Z" fill="url(#paint1_linear_5_142)"/>
<path d="M76.1227 20.9041C68.6269 21.556 62.88 27.8336 62.8586 35.3577C62.728 81.3701 62.5129 240.079 65.5119 296.253C65.8296 302.205 70.7085 306.88 76.6678 306.944C106.143 307.261 190.926 307.844 239.058 304.765C249.083 304.124 256.884 295.821 256.872 285.775C256.813 237.484 256.042 101.671 249.427 39.5925C248.634 32.1546 242.655 26.3488 235.198 25.7678C203.051 23.263 117.685 17.2895 76.1227 20.9041Z" fill="url(#paint2_linear_5_142)"/>
<path d="M74.6902 47.4161C74.1113 86.7757 72.4633 217.708 75.3403 266.033C75.7608 273.097 81.2474 278.673 88.0222 278.909C115.916 279.882 187.445 281.763 228.203 277.278C235.542 276.47 241.152 270.109 241.347 262.406C242.367 222.239 245.121 100.291 242.324 52.506C241.878 44.883 236.054 38.8004 228.754 38.3086C198.552 36.2735 120.996 31.5802 86.3364 34.4665C79.83 35.0083 74.7904 40.6019 74.6902 47.4161Z" fill="url(#paint3_linear_5_142)"/>
<path d="M142.085 27.7476C142.108 28.835 142.976 29.7131 144.063 29.7462C149.43 29.9092 164.55 30.3721 171.308 30.6156C172.64 30.6635 173.658 29.4445 173.377 28.141C173.354 28.1 173.181 26.4289 171.474 26.3102C166.903 25.9923 153.111 25.1353 143.997 25.6611C142.126 25.7693 142.024 27.8977 142.085 27.7476Z" fill="#1F5AA9"/>
<path d="M233.989 266.595H80.2069C78.5872 266.595 77.2741 265.281 77.2741 263.662V5.28403C77.2741 4.51207 77.8998 3.88635 78.6718 3.88635H234.723C235.937 3.88635 236.922 4.87051 236.922 6.08464V263.662C236.922 265.281 235.609 266.595 233.989 266.595Z" fill="url(#paint4_linear_5_142)"/>
<path d="M231.197 261.757H82.9988C81.3791 261.757 80.066 260.444 80.066 258.825V9.55369C80.066 8.82693 80.6552 8.23764 81.382 8.23764H231.197C232.817 8.23764 234.13 9.55073 234.13 11.1705V258.825C234.13 260.444 232.817 261.757 231.197 261.757Z" fill="url(#paint5_linear_5_142)"/>
<path d="M204.807 51.9422H111.579C111.219 51.9422 110.924 51.6476 110.924 51.2876V29.005C110.924 28.645 111.219 28.3505 111.579 28.3505H204.807C205.167 28.3505 205.462 28.645 205.462 29.005V51.2876C205.462 51.6477 205.167 51.9422 204.807 51.9422Z" fill="white"/>
<path d="M217.586 167.229H127.683C127.348 167.229 127.073 166.955 127.073 166.619V154.846C127.073 154.51 127.348 154.236 127.683 154.236H217.586C217.922 154.236 218.196 154.51 218.196 154.846V166.619C218.196 166.955 217.922 167.229 217.586 167.229Z" fill="white"/>
<path d="M118.087 172.131H95.9468C95.5874 172.131 95.296 171.84 95.296 171.48V149.985C95.296 149.625 95.5874 149.334 95.9468 149.334H118.087C118.446 149.334 118.738 149.625 118.738 149.985V171.48C118.738 171.84 118.446 172.131 118.087 172.131Z" fill="url(#paint6_linear_5_142)"/>
<path d="M217.915 134.064H128.012C127.677 134.064 127.402 133.79 127.402 133.454V121.681C127.402 121.345 127.677 121.071 128.012 121.071H217.915C218.251 121.071 218.525 121.345 218.525 121.681V133.454C218.525 133.79 218.251 134.064 217.915 134.064Z" fill="white"/>
<path d="M118.416 138.966H96.2756C95.9161 138.966 95.6247 138.675 95.6247 138.316V116.82C95.6247 116.46 95.9161 116.169 96.2756 116.169H118.416C118.775 116.169 119.066 116.46 119.066 116.82V138.316C119.066 138.675 118.775 138.966 118.416 138.966Z" fill="url(#paint7_linear_5_142)"/>
<path d="M217.586 233.559H127.683C127.348 233.559 127.073 233.284 127.073 232.949V221.175C127.073 220.84 127.348 220.565 127.683 220.565H217.586C217.922 220.565 218.196 220.84 218.196 221.175V232.949C218.196 233.284 217.922 233.559 217.586 233.559Z" fill="white"/>
<path d="M118.087 238.461H95.9468C95.5874 238.461 95.296 238.17 95.296 237.81V216.314C95.296 215.955 95.5874 215.664 95.9468 215.664H118.087C118.446 215.664 118.738 215.955 118.738 216.314V237.81C118.738 238.17 118.446 238.461 118.087 238.461Z" fill="url(#paint8_linear_5_142)"/>
<path d="M217.915 200.394H128.012C127.677 200.394 127.402 200.12 127.402 199.784V188.011C127.402 187.675 127.677 187.401 128.012 187.401H217.915C218.251 187.401 218.525 187.675 218.525 188.011V199.784C218.525 200.12 218.251 200.394 217.915 200.394Z" fill="white"/>
<path d="M118.416 205.296H96.2756C95.9161 205.296 95.6247 205.005 95.6247 204.645V183.15C95.6247 182.79 95.9161 182.499 96.2756 182.499H118.416C118.775 182.499 119.066 182.79 119.066 183.15V204.645C119.066 205.005 118.775 205.296 118.416 205.296Z" fill="url(#paint9_linear_5_142)"/>
<path d="M217.915 100.9H128.012C127.677 100.9 127.402 100.625 127.402 100.29V88.5162C127.402 88.1807 127.677 87.9062 128.012 87.9062H217.915C218.251 87.9062 218.525 88.1807 218.525 88.5162V100.29C218.525 100.625 218.251 100.9 217.915 100.9Z" fill="white"/>
<path d="M118.416 105.802H96.2756C95.9161 105.802 95.6247 105.51 95.6247 105.151V83.6551C95.6247 83.2957 95.9161 83.0043 96.2756 83.0043H118.416C118.775 83.0043 119.066 83.2957 119.066 83.6551V105.151C119.066 105.51 118.775 105.802 118.416 105.802Z" fill="url(#paint10_linear_5_142)"/>
<path d="M21.0113 264.328C20.833 264.279 20.6897 264.133 20.6571 263.942C20.5491 263.314 20.4527 262.673 20.3704 262.037C20.3366 261.776 20.5248 261.54 20.7908 261.51C21.4354 261.434 21.3224 262.095 21.6145 263.795C21.6592 264.055 21.4811 264.298 21.2165 264.339C21.146 264.35 21.0763 264.345 21.0113 264.328Z" fill="#91B3FA"/>
<path d="M19.9901 256.053C19.992 254.828 20.0436 253.589 20.1434 252.369C20.1649 252.107 20.3989 251.914 20.6662 251.938C21.3945 252.008 20.9669 252.456 20.9611 256.065C20.9607 256.328 20.7431 256.539 20.4749 256.535C20.2031 256.531 19.9897 256.313 19.9901 256.053ZM21.0118 246.449C21.2678 245.246 21.5764 244.031 21.9194 242.88C22.1028 242.261 23.0286 242.563 22.8518 243.156C22.5109 244.304 22.2132 245.476 21.9627 246.653C21.9081 246.91 21.6509 247.073 21.3885 247.016C21.1228 246.959 20.9578 246.703 21.0118 246.449ZM23.9895 237.268C24.4864 236.151 25.0353 235.039 25.621 233.964C25.9234 233.41 26.7793 233.868 26.4789 234.42C25.9049 235.473 25.3671 236.563 24.8803 237.657C24.6242 238.233 23.734 237.842 23.9895 237.268ZM28.943 229.561C28.7241 229.407 28.6721 229.109 28.8273 228.897C29.5486 227.905 30.3201 226.93 31.1201 225.997C31.5315 225.517 32.2775 226.135 31.8665 226.614C31.0827 227.528 30.3266 228.484 29.6196 229.455C29.4649 229.669 29.1615 229.716 28.943 229.561ZM35.2961 222.364C35.1134 222.17 35.1242 221.869 35.3206 221.692C36.2353 220.867 37.1945 220.068 38.1716 219.317C38.6749 218.932 39.279 219.683 38.7761 220.07C37.8186 220.805 36.8787 221.588 35.9824 222.396C35.7865 222.573 35.479 222.559 35.2961 222.364ZM43.3104 216.816C43.1933 216.784 43.088 216.71 43.0203 216.6C42.881 216.374 42.9538 216.082 43.1831 215.948C44.2518 215.323 45.3579 214.734 46.4709 214.194C46.7104 214.078 47.0021 214.175 47.1234 214.412C47.2443 214.648 47.1485 214.933 46.9092 215.049C45.8184 215.577 44.7344 216.156 43.6871 216.767C43.5695 216.836 43.4336 216.85 43.3104 216.816ZM52.1228 212.808C51.9732 212.767 51.8453 212.657 51.7895 212.503C51.6997 212.254 51.8319 211.984 52.0844 211.898C53.2605 211.502 54.4681 211.146 55.6736 210.841C55.9322 210.775 56.1991 210.928 56.2688 211.183C56.3386 211.438 56.1853 211.697 55.9264 211.763C54.7454 212.062 53.5621 212.411 52.4099 212.799C52.3139 212.832 52.2142 212.833 52.1228 212.808ZM61.2473 210.252C61.211 209.991 61.397 209.753 61.6627 209.721C62.8986 209.569 64.1583 209.464 65.4067 209.408C66.0498 209.381 66.1016 210.331 65.462 210.359C64.2392 210.414 63.0051 210.517 61.7941 210.666C61.5292 210.698 61.2837 210.514 61.2473 210.252ZM93.163 217.594C90.0598 215.663 89.413 215.761 89.7522 215.124C89.8757 214.892 90.1685 214.805 90.4067 214.928C91.5154 215.504 92.6154 216.131 93.6764 216.791C94.2211 217.13 93.7096 217.933 93.163 217.594ZM70.9982 209.953C71.017 209.691 71.249 209.496 71.5165 209.518C72.7607 209.618 74.0185 209.767 75.2548 209.961C75.8903 210.061 75.7465 211.001 75.112 210.901C73.9004 210.711 72.6677 210.565 71.4485 210.467C71.1779 210.445 70.9796 210.213 70.9982 209.953ZM84.4791 213.342C81.0551 212.074 80.4337 212.297 80.6329 211.602C80.7593 211.161 81.2892 211.271 81.2314 211.279C82.4375 211.624 83.6426 212.018 84.8128 212.451C85.0648 212.544 85.1939 212.819 85.1018 213.065C85.0138 213.3 84.7467 213.437 84.4791 213.342Z" fill="#91B3FA"/>
<path d="M99.5177 222.321C98.2954 221.243 97.5689 220.908 97.9868 220.412C98.1562 220.211 98.4621 220.183 98.67 220.353C99.9788 221.417 100.624 221.829 100.203 222.289C100.077 222.427 99.718 222.497 99.5177 222.321Z" fill="#91B3FA"/>
<path d="M115.747 255.668C115.547 255.614 115.396 255.437 115.387 255.223C115.361 254.597 115.321 253.964 115.269 253.341C115.247 253.079 115.446 252.852 115.714 252.833C115.98 252.815 116.215 253.012 116.237 253.275C116.29 253.91 116.331 254.556 116.358 255.195C116.369 255.458 116.16 255.677 115.892 255.685C115.842 255.687 115.794 255.681 115.747 255.668Z" fill="#91B3FA"/>
<path d="M54.4664 301.763C53.1756 301.374 51.8861 300.927 50.6338 300.434C50.3839 300.336 50.2603 300.058 50.3579 299.815C50.6329 299.128 50.9653 299.715 54.7417 300.854C54.999 300.931 55.1458 301.197 55.0696 301.449C54.9367 301.888 54.4085 301.771 54.4664 301.763ZM60.4798 302.697C60.5945 301.968 61.0689 302.471 64.9763 302.782C65.2445 302.802 65.4457 303.033 65.4272 303.295C65.4085 303.557 65.1766 303.752 64.9092 303.731C63.5721 303.625 62.2184 303.461 60.8859 303.245C60.6188 303.201 60.4392 302.955 60.4798 302.697ZM44.682 297.616C43.509 296.961 42.348 296.247 41.2321 295.496C41.0101 295.346 40.9514 295.049 41.1014 294.833C41.5245 294.224 41.7163 294.868 45.1556 296.79C45.3897 296.921 45.4734 297.212 45.3428 297.44C45.212 297.668 44.9164 297.747 44.682 297.616ZM71.3281 303.796C71.1327 303.742 70.9831 303.573 70.9685 303.363C70.9503 303.101 71.1524 302.876 71.42 302.861C72.7366 302.789 74.0633 302.66 75.363 302.479C75.6287 302.442 75.876 302.623 75.9167 302.883C75.9576 303.144 75.7757 303.385 75.5108 303.422C74.1839 303.606 72.8296 303.738 71.4858 303.812C71.4314 303.815 71.3781 303.809 71.3281 303.796ZM81.66 302.082C81.5021 302.04 81.3691 301.92 81.3188 301.754C81.2424 301.502 81.3886 301.238 81.6457 301.166C82.9071 300.812 84.169 300.4 85.3966 299.942C85.6464 299.848 85.9278 299.972 86.0259 300.218C86.1237 300.464 86.0007 300.739 85.7512 300.832C84.4984 301.3 83.2104 301.72 81.9228 302.081C81.8341 302.106 81.7437 302.105 81.66 302.082ZM91.3331 298.184C91.2106 298.15 91.1008 298.07 91.034 297.952C90.9031 297.722 90.9868 297.432 91.2209 297.307C92.3706 296.69 93.5076 296.016 94.6005 295.306C94.823 295.162 95.1244 295.223 95.2746 295.442C95.4244 295.662 95.3658 295.957 95.1435 296.102C94.0283 296.826 92.868 297.513 91.6947 298.143C91.5801 298.204 91.4506 298.215 91.3331 298.184ZM99.8854 292.3C99.797 292.276 99.714 292.227 99.6484 292.154C99.4698 291.956 99.4871 291.656 99.6871 291.483C100.67 290.633 101.627 289.732 102.533 288.804C102.718 288.615 103.025 288.609 103.22 288.793C103.415 288.976 103.423 289.277 103.239 289.466C102.314 290.413 101.337 291.333 100.334 292.2C100.207 292.31 100.038 292.341 99.8854 292.3ZM106.746 284.638C106.133 284.201 106.79 284.039 108.804 280.739C109.132 280.202 109.967 280.697 109.639 281.235C108.952 282.361 108.206 283.471 107.424 284.535C107.268 284.747 106.966 284.794 106.746 284.638ZM111.968 275.754C111.273 275.46 111.873 275.164 113.093 271.499C113.29 270.904 114.215 271.206 114.016 271.803C113.6 273.054 113.125 274.3 112.604 275.508C112.498 275.752 112.209 275.858 111.968 275.754ZM115.017 265.936C114.775 265.87 114.619 265.632 114.665 265.387C114.9 264.113 115.083 262.818 115.209 261.539C115.235 261.278 115.472 261.089 115.739 261.117C116.007 261.146 116.201 261.38 116.176 261.641C116.048 262.946 115.861 264.267 115.62 265.568C115.572 265.826 115.32 265.995 115.056 265.945C115.043 265.942 115.03 265.939 115.017 265.936Z" fill="#91B3FA"/>
<path d="M36.0215 291.448C34.7616 290.324 34.1383 289.885 34.5805 289.445C35.0403 288.987 35.3805 289.596 36.6703 290.747C36.87 290.925 36.8863 291.226 36.7072 291.419C36.528 291.613 36.221 291.625 36.0215 291.448Z" fill="#91B3FA"/>
<path d="M40.1492 278.946L46.9285 277.438C49.2546 279.697 51.9605 281.612 54.9775 283.072C55.8798 289.662 55.476 290.188 56.2057 290.356L64.3653 292.232C64.6037 292.286 64.8497 292.187 64.9775 291.985L68.6259 286.21C71.9752 286.212 75.2412 285.67 78.3138 284.652L83.7653 288.972C83.9564 289.123 84.223 289.14 84.4291 289.014L91.4846 284.698C91.6908 284.572 91.7912 284.33 91.7344 284.097L90.1181 277.432C92.3946 275.177 94.3164 272.546 95.7716 269.605L102.692 268.915C102.935 268.891 103.133 268.718 103.187 268.485L105.005 260.506C105.058 260.273 104.954 260.031 104.746 259.903L98.8132 256.259C98.777 252.974 98.1861 249.766 97.1127 246.741C101.243 241.481 101.889 241.415 101.49 240.796C96.9726 234.038 97.1329 233.411 96.3905 233.575L89.6111 235.083C87.2851 232.825 84.579 230.91 81.5622 229.449C80.6605 222.863 81.064 222.333 80.3341 222.165C72.1951 220.441 71.9543 219.915 71.5622 220.536L67.9136 226.312C64.5644 226.309 61.2984 226.851 58.2257 227.869C52.8779 223.808 52.7466 223.118 52.1105 223.507C45.2041 227.901 44.6307 227.704 44.8051 228.424L46.4215 235.089C44.145 237.344 42.2231 239.975 40.7681 242.916C34.175 243.71 33.5187 243.307 33.3529 244.036C31.6958 251.962 31.1517 252.224 31.7933 252.618L37.7261 256.263C37.7624 259.546 38.3534 262.755 39.4266 265.78C35.3099 271.023 34.6491 271.103 35.049 271.725C39.567 278.484 39.4068 279.111 40.1492 278.946Z" fill="#91B3FA"/>
<path d="M60.1219 256.392C59.9961 251.986 63.549 248.342 68.0419 248.27C72.5344 248.199 76.2923 251.724 76.4183 256.13C76.5439 260.536 72.9912 264.18 68.4983 264.252C64.0042 264.324 60.2475 260.797 60.1219 256.392ZM68.0826 249.698C64.4359 249.756 61.473 252.695 61.5781 256.368C61.6812 259.987 64.7673 262.884 68.4573 262.824C72.1472 262.764 75.0653 259.772 74.9618 256.153C74.8585 252.529 71.7659 249.638 68.0826 249.698Z" fill="#BDD0FB"/>
<path d="M63.0347 275.897C61.8704 275.58 60.7348 275.167 59.6488 274.665C59.3223 274.514 59.1599 274.157 59.249 273.829C59.2597 273.79 59.2739 273.751 59.2918 273.713C59.4601 273.357 59.8939 273.206 60.2581 273.374C61.5072 273.952 62.8278 274.403 64.1821 274.715C74.3861 277.06 84.5388 271.064 87.2004 261.276C87.2683 261.026 87.3313 260.774 87.3896 260.519C89.7356 250.224 83.0884 240.004 72.641 237.599C62.2084 235.201 51.7786 241.528 49.4337 251.795C48.0413 257.907 50.1362 261.718 49.9644 262.35C49.7786 263.033 48.7961 263.049 48.569 262.376C47.3281 258.701 47.1349 254.627 48.2152 250.654C52.8771 233.512 76.3215 230.246 86.051 245.367C89.0454 250.02 90.0256 255.518 88.8109 260.846C88.7483 261.122 88.6798 261.395 88.6062 261.667C87.2549 266.638 84.0892 270.845 79.6214 273.578C74.9096 276.46 69.3139 277.357 63.865 276.105C63.587 276.041 63.3099 275.972 63.0347 275.897Z" fill="#BDD0FB"/>
<path d="M24.153 206.644C25.6572 207.913 27.3749 208.952 29.2592 209.696L30.0398 213.835C30.1263 214.294 30.4904 214.05 35.3322 214.847C35.779 214.913 35.6658 214.525 37.6268 210.923C39.6454 210.752 41.5888 210.251 43.3945 209.467L46.8757 211.843C47.2627 212.107 47.3463 211.677 51.3339 208.817C51.4525 208.729 51.502 208.575 51.4574 208.434L50.1808 204.417C51.4505 202.913 52.4894 201.195 53.2327 199.311C57.1728 198.483 57.5837 198.695 57.6507 198.24C58.2903 193.274 58.6053 193.089 58.2012 192.88L54.4604 190.943C54.2896 188.925 53.788 186.981 53.0038 185.176L55.3805 181.695C55.644 181.309 55.2138 181.224 52.3541 177.237C52.086 176.876 51.9075 177.224 47.9542 178.39C46.45 177.12 44.7324 176.081 42.848 175.338L42.0674 171.198C41.9807 170.738 41.6167 170.983 36.7749 170.186C36.3306 170.121 36.4513 170.49 34.4805 174.11C32.4619 174.281 30.5183 174.782 28.7127 175.567L25.2316 173.19C25.1096 173.107 24.9481 173.11 24.8296 173.198L20.7735 176.216C20.655 176.305 20.6054 176.458 20.6502 176.599L21.9266 180.616C20.657 182.12 19.6181 183.838 18.8746 185.722C14.9344 186.551 14.5231 186.338 14.4568 186.793C13.8172 191.757 13.5019 191.944 13.9062 192.153L17.6469 194.09C17.8177 196.108 18.3193 198.052 19.1035 199.858C16.903 203.23 16.4596 203.371 16.735 203.741L19.7533 207.797C20.0229 208.159 20.2199 207.804 24.153 206.644Z" fill="#91B3FA"/>
<path d="M30.8051 193.052C30.5096 190.151 32.6173 187.564 35.5186 187.268C38.4185 186.972 41.0062 189.08 41.3019 191.981C41.5968 194.875 39.4825 197.47 36.5886 197.765C33.6945 198.06 31.1005 195.946 30.8051 193.052ZM32.3693 192.892C32.5769 194.924 34.3987 196.408 36.4289 196.201C39.6909 195.868 40.9438 191.725 38.3931 189.646C35.8536 187.577 32.0347 189.609 32.3693 192.892Z" fill="#BDD0FB"/>
<path d="M11.2459 204.683C10.9337 204.048 10.6425 203.39 10.3802 202.73C10.2733 202.461 10.4046 202.156 10.6737 202.049C11.3506 201.78 11.3823 202.582 12.1868 204.221C12.3145 204.481 12.2071 204.795 11.9473 204.923C11.6887 205.05 11.3741 204.944 11.2459 204.683Z" fill="#91B3FA"/>
<path d="M8.64202 195.942C8.46966 194.561 8.39384 193.106 8.43949 191.629C8.46088 190.935 9.50856 190.971 9.48728 191.662C9.36889 195.487 10.0973 196.29 9.22681 196.398C8.93716 196.433 8.67768 196.228 8.64202 195.942ZM9.90004 185.361C9.62234 185.279 9.46369 184.988 9.54532 184.71C9.95138 183.333 10.47 181.975 11.0875 180.676C11.3855 180.05 12.332 180.499 12.0345 181.126C11.4405 182.376 10.9412 183.681 10.5511 185.006C10.4073 185.494 9.83739 185.37 9.90004 185.361ZM15.1331 175.623C15.0622 175.603 14.9944 175.569 14.9345 175.519C14.7124 175.333 14.6831 175.003 14.8688 174.781C15.7913 173.678 16.8071 172.64 17.8884 171.695C18.1062 171.505 18.438 171.527 18.6279 171.745C18.8185 171.963 18.7962 172.294 18.5783 172.484C17.5381 173.394 16.5606 174.393 15.6731 175.453C15.5372 175.615 15.3245 175.675 15.1331 175.623ZM23.8 168.766C23.661 168.729 23.538 168.634 23.4686 168.495C23.339 168.236 23.444 167.921 23.7029 167.792C24.9878 167.149 26.3344 166.604 27.7053 166.171C27.9817 166.084 28.2758 166.237 28.3631 166.513C28.4501 166.789 28.2971 167.084 28.0209 167.171C26.7026 167.587 25.4074 168.111 24.1716 168.729C24.0518 168.789 23.9197 168.799 23.8 168.766ZM34.1015 165.474C34.0862 165.185 34.3078 164.938 34.5968 164.922C36.0362 164.845 37.4885 164.88 38.9138 165.027C39.6014 165.094 39.4982 166.141 38.8064 166.07C37.4355 165.928 36.038 165.894 34.6532 165.969C34.357 165.984 34.117 165.757 34.1015 165.474Z" fill="#91B3FA"/>
<path d="M47.2851 168.416C45.5431 167.602 44.8363 167.607 45.0852 166.944C45.187 166.673 45.4829 166.533 45.7602 166.638C46.4212 166.886 47.0836 167.165 47.729 167.466C47.9913 167.589 48.1045 167.901 47.9819 168.163C47.8612 168.422 47.5533 168.54 47.2851 168.416Z" fill="#91B3FA"/>
<path d="M61.4994 184.804C60.9411 182.956 60.468 182.439 61.1279 182.182C61.3981 182.077 61.7014 182.211 61.8063 182.481C62.0625 183.139 62.297 183.819 62.5028 184.501C62.5865 184.778 62.4297 185.07 62.1528 185.154C61.8765 185.238 61.5832 185.082 61.4994 184.804Z" fill="#91B3FA"/>
<path d="M31.374 219.221C31.5067 218.36 32.2592 219.097 36.0459 219.094C36.7373 219.092 36.7419 220.141 36.0467 220.142C34.6307 220.143 33.2059 220.034 31.812 219.819C31.5305 219.776 31.329 219.51 31.374 219.221ZM42.2449 218.908C42.174 218.627 42.3435 218.342 42.6244 218.271C46.3259 217.333 46.8381 216.437 47.1817 217.241C47.2951 217.507 47.1714 217.815 46.9052 217.929C45.6065 218.482 44.2529 218.94 42.8817 219.287C42.6009 219.358 42.3163 219.188 42.2449 218.908ZM52.1172 214.356C51.5861 213.663 52.6311 213.638 55.2554 210.894C55.735 210.394 56.4928 211.117 56.0131 211.619C55.035 212.641 53.9715 213.595 52.8519 214.453C52.6226 214.629 52.2934 214.586 52.1172 214.356ZM59.4066 206.287C58.6451 205.856 59.6004 205.424 60.9396 201.873C61.1837 201.224 62.1653 201.593 61.9207 202.242C61.4224 203.563 60.817 204.857 60.121 206.089C59.9781 206.341 59.6582 206.429 59.4066 206.287ZM62.4814 195.426C62.8962 191.633 62.2365 190.834 63.1112 190.795C63.4007 190.782 63.6453 191.006 63.6585 191.295C63.7221 192.712 63.6767 194.14 63.5234 195.54C63.4919 195.828 63.2332 196.036 62.9453 196.004C62.6582 195.973 62.4498 195.714 62.4814 195.426Z" fill="#91B3FA"/>
<path d="M25.1646 217.908C24.5126 217.627 23.8638 217.318 23.2365 216.989C22.9803 216.854 22.8815 216.538 23.016 216.281C23.355 215.636 23.8977 216.222 25.5788 216.945C25.8446 217.059 25.9675 217.367 25.8533 217.633C25.7371 217.903 25.4255 218.02 25.1646 217.908Z" fill="#91B3FA"/>
<path d="M31.6009 204.617C31.1341 204.445 30.9673 203.978 31.1109 203.594C31.2632 203.188 31.7201 202.982 32.1228 203.134C32.8778 203.416 33.6697 203.62 34.4774 203.738C34.6483 203.731 38.8523 204.641 42.9479 201.602C51.0676 195.56 47.8164 182.622 37.7912 181.153C32.0234 180.307 26.6141 183.953 25.1217 189.444C23.6179 194.974 26.7399 197.196 25.1671 197.85C24.7663 198.017 24.3063 197.827 24.1393 197.426C23.239 195.264 22.9441 192.89 23.286 190.561C24.3222 183.488 30.9244 178.557 38.0196 179.597C45.6545 180.717 50.725 188.285 48.6601 195.879C46.9951 202.004 40.9382 206.276 34.2492 205.294L34.249 205.294C33.3436 205.161 32.4524 204.933 31.6009 204.617Z" fill="#BDD0FB"/>
<defs>
<linearGradient id="paint0_linear_5_142" x1="323.219" y1="345.428" x2="98.5857" y2="102.967" gradientUnits="userSpaceOnUse">
<stop stop-color="#DAE3FE"/>
<stop offset="1" stop-color="#E9EFFD"/>
</linearGradient>
<linearGradient id="paint1_linear_5_142" x1="285.443" y1="107.611" x2="131.516" y2="203.577" gradientUnits="userSpaceOnUse">
<stop stop-color="#DAE3FE"/>
<stop offset="1" stop-color="#E9EFFD"/>
</linearGradient>
<linearGradient id="paint2_linear_5_142" x1="62.1659" y1="165.037" x2="255.454" y2="160.803" gradientUnits="userSpaceOnUse">
<stop stop-color="#09005D"/>
<stop offset="1" stop-color="#1A0F91"/>
</linearGradient>
<linearGradient id="paint3_linear_5_142" x1="256.711" y1="-0.19966" x2="23.5726" y2="366.764" gradientUnits="userSpaceOnUse">
<stop stop-color="#4F52FF"/>
<stop offset="1" stop-color="#4042E2"/>
</linearGradient>
<linearGradient id="paint4_linear_5_142" x1="84.4721" y1="242.083" x2="351.751" y2="-153.08" gradientUnits="userSpaceOnUse">
<stop stop-color="#FE7062"/>
<stop offset="1" stop-color="#FF928E"/>
</linearGradient>
<linearGradient id="paint5_linear_5_142" x1="144.535" y1="288.398" x2="176.892" y2="-108.698" gradientUnits="userSpaceOnUse">
<stop stop-color="#FEBBBA"/>
<stop offset="1" stop-color="#FF928E"/>
</linearGradient>
<linearGradient id="paint6_linear_5_142" x1="52.6841" y1="228.937" x2="188.044" y2="59.0174" gradientUnits="userSpaceOnUse">
<stop stop-color="#FE7062"/>
<stop offset="1" stop-color="#FF928E"/>
</linearGradient>
<linearGradient id="paint7_linear_5_142" x1="53.0128" y1="195.772" x2="188.373" y2="25.8524" gradientUnits="userSpaceOnUse">
<stop stop-color="#FE7062"/>
<stop offset="1" stop-color="#FF928E"/>
</linearGradient>
<linearGradient id="paint8_linear_5_142" x1="52.6841" y1="295.267" x2="188.044" y2="125.347" gradientUnits="userSpaceOnUse">
<stop stop-color="#FE7062"/>
<stop offset="1" stop-color="#FF928E"/>
</linearGradient>
<linearGradient id="paint9_linear_5_142" x1="53.0128" y1="262.102" x2="188.373" y2="92.1822" gradientUnits="userSpaceOnUse">
<stop stop-color="#FE7062"/>
<stop offset="1" stop-color="#FF928E"/>
</linearGradient>
<linearGradient id="paint10_linear_5_142" x1="53.0128" y1="162.608" x2="188.373" y2="-7.31226" gradientUnits="userSpaceOnUse">
<stop stop-color="#FE7062"/>
<stop offset="1" stop-color="#FF928E"/>
</linearGradient>
</defs>
</svg>
