<svg width="23" height="24" viewBox="0 0 23 24" fill="none" xmlns="http://www.w3.org/2000/svg">
<path d="M4.13379 7.31197H19.1087M9.74939 11.0557V16.6713M13.4931 11.0557V16.6713M5.06972 7.31197L6.00566 18.5432C6.00566 19.0396 6.20287 19.5157 6.55391 19.8668C6.90496 20.2178 7.38107 20.415 7.87752 20.415H15.365C15.8614 20.415 16.3376 20.2178 16.6886 19.8668C17.0396 19.5157 17.2369 19.0396 17.2369 18.5432L18.1728 7.31197M8.81345 7.31197V4.50417C8.81345 4.25595 8.91206 4.01789 9.08758 3.84237C9.2631 3.66684 9.50116 3.56824 9.74939 3.56824H13.4931C13.7413 3.56824 13.9794 3.66684 14.1549 3.84237C14.3304 4.01789 14.4291 4.25595 14.4291 4.50417V7.31197" stroke="white" stroke-width="2" stroke-linecap="round" stroke-linejoin="round"/>
</svg>
